<?xml version="1.0" encoding="UTF-8" standalone="no"?>
<!-- Created with Inkscape (http://www.inkscape.org/) -->

<svg
   width="210mm"
   height="297mm"
   viewBox="0 0 210 297"
   version="1.1"
   id="svg5"
   inkscape:version="1.1.1 (3bf5ae0d25, 2021-09-20)"
   sodipodi:docname="logo.svg"
   xmlns:inkscape="http://www.inkscape.org/namespaces/inkscape"
   xmlns:sodipodi="http://sodipodi.sourceforge.net/DTD/sodipodi-0.dtd"
   xmlns="http://www.w3.org/2000/svg"
   xmlns:svg="http://www.w3.org/2000/svg">
  <sodipodi:namedview
     id="namedview7"
     pagecolor="#ffffff"
     bordercolor="#999999"
     borderopacity="1"
     inkscape:pageshadow="0"
     inkscape:pageopacity="0"
     inkscape:pagecheckerboard="0"
     inkscape:document-units="mm"
     showgrid="false"
     inkscape:zoom="0.49260384"
     inkscape:cx="-63.945908"
     inkscape:cy="590.73839"
     inkscape:window-width="1920"
     inkscape:window-height="986"
     inkscape:window-x="-11"
     inkscape:window-y="-11"
     inkscape:window-maximized="1"
     inkscape:current-layer="layer1"
     showguides="true">
    <inkscape:grid
       type="xygrid"
       id="grid822" />
  </sodipodi:namedview>
  <defs
     id="defs2" />
  <g
     inkscape:label="Ebene 1"
     inkscape:groupmode="layer"
     id="layer1">
    <path
       style="fill:#000000;stroke-width:0.64371"
       d="M 62.491894,219.13415 C 47.669503,208.27867 32.569007,197.24916 28.935237,194.62413 c -3.633771,-2.62503 -7.020285,-5.57227 -7.525587,-6.54941 -1.629629,-3.15136 -2.471052,-12.62829 -2.091085,-23.55185 0.646731,-18.59272 4.573992,-33.7314 13.414772,-51.7108 l 3.903491,-7.93849 -5.519429,-5.640397 C 22.799496,90.732974 20.467298,84.405185 22.593488,76.105855 c 2.094645,-8.1762 7.938057,-14.143181 16.203308,-16.545954 7.662193,-2.22746 14.880275,0.12478 22.267536,7.256579 l 4.503901,4.348148 2.68896,-1.539307 c 11.151253,-6.383585 18.082748,-9.077401 27.661548,-10.750223 14.579039,-2.546054 31.062529,1.466517 46.579179,11.33875 1.29074,0.821215 1.70934,0.584565 6.0113,-3.398397 6.42007,-5.943993 10.4525,-7.793368 17.07587,-7.831404 4.57114,-0.02625 5.65697,0.213424 9.46902,2.09009 5.21054,2.56514 9.58612,7.26416 11.5127,12.363736 1.06561,2.820584 1.28457,4.587417 1.07699,8.690086 -0.34544,6.827451 -2.63801,11.18236 -9.45376,17.958131 l -5.03265,5.00313 1.82179,3.36358 c 5.47314,10.10508 11.54981,27.00259 14.2035,39.49597 1.96541,9.25305 2.14349,28.61062 0.33411,36.31899 l -1.15945,4.93957 -33.90715,24.83202 -33.90715,24.83203 H 104.99237 89.441697 Z m 85.587046,-13.44696 31.24802,-22.88484 0.52496,-3.6682 c 0.86001,-6.0093 0.49583,-20.52466 -0.67995,-27.10174 -1.30175,-7.28179 -3.69715,-15.80828 -6.5361,-23.26551 -2.21872,-5.82801 -8.34299,-18.40715 -11.04752,-22.6914 l -1.61547,-2.55907 7.76301,-7.797541 c 9.90147,-9.945523 11.35697,-13.254033 8.52766,-19.384321 -2.14124,-4.639438 -5.51727,-6.758956 -10.76587,-6.758956 -4.1992,0 -6.2304,1.293329 -13.82284,8.801433 l -6.8159,6.740192 -4.63055,-3.483489 C 134.47207,77.30335 125.75366,72.690745 120.01368,70.938844 102.2599,65.520211 84.339759,69.863419 66.58692,83.887599 l -1.784393,1.409613 -7.22755,-7.184676 c -3.975153,-3.951572 -8.043,-7.488932 -9.039659,-7.8608 -9.733328,-3.631646 -19.104165,6.118639 -14.991199,15.598231 0.494297,1.13926 4.383868,5.521975 8.643489,9.739365 l 7.744767,7.667988 -1.915955,3.27508 c -12.868408,21.99694 -19.274325,44.64861 -18.416007,65.11998 0.216054,5.153 0.700869,9.23783 1.219064,10.27126 0.52861,1.0542 12.650257,10.36108 31.436588,24.13668 l 30.576233,22.42087 11.999312,0.0454 11.9993,0.0454 z m -59.270757,-1.61328 c -6.816798,-1.34451 -14.643461,-7.39712 -17.72978,-13.71101 -2.588143,-5.29473 -3.267319,-10.29485 -2.840347,-20.91072 0.578194,-14.37578 3.669625,-24.68885 10.464521,-34.90984 5.740845,-8.63546 13.979325,-16.23178 22.260493,-20.52536 l 4.21265,-2.18415 4.28005,2.39354 c 10.79554,6.03721 19.88915,15.68817 25.55655,27.12292 5.28367,10.66051 6.01473,14.34928 6.0598,30.57624 0.0378,13.60096 0.01,13.90086 -1.63337,17.38017 -3.46137,7.33016 -10.70882,13.11035 -18.47581,14.73537 -3.92604,0.8214 -28.031851,0.84603 -32.154757,0.0328 z m 32.850827,-11.13025 c 3.35802,-1.40719 6.33472,-4.32597 7.95047,-7.79576 1.35434,-2.90843 1.51166,-4.16537 1.51729,-12.12301 0.007,-9.67331 -0.98081,-15.94208 -3.61386,-22.93747 -3.36528,-8.94072 -11.20457,-18.93694 -18.86516,-24.05579 l -3.49585,-2.33594 -2.40371,1.35096 c -3.735149,2.09927 -10.60761,8.60735 -13.771928,13.04177 -3.797948,5.32234 -7.091243,12.39417 -8.686078,18.65196 -1.032698,4.0521 -1.297655,7.17786 -1.297655,15.3088 0,11.35902 0.484307,13.4098 4.055812,17.1742 4.03457,4.25247 5.497414,4.55837 21.874199,4.57416 10.8769,0.0105 15.20015,-0.21008 16.73647,-0.85388 z m -28.752331,-14.05456 -2.126438,-4.676 2.647959,-1.67928 c 4.261931,-2.70284 6.163051,-5.38779 6.163051,-8.70406 v -2.8473 h -4.18411 -4.184118 v -5.47154 -5.47154 h 13.839777 13.83976 v 5.47154 5.47154 h -4.18411 -4.18412 v 3.13174 c 0,3.74247 1.36019,5.75781 5.53883,8.20665 2.37323,1.39081 2.7962,1.91981 2.44439,3.05717 -0.39851,1.28832 -3.38009,7.53192 -3.84268,8.04679 -0.27736,0.30871 -4.51518,-2.26212 -7.37703,-4.47518 l -2.27094,-1.75611 -2.5569,1.92554 c -1.40629,1.05905 -3.654889,2.49265 -4.996889,3.18579 l -2.43999,1.26024 z M 60.324934,118.49758 v -5.14969 h 5.149682 5.149681 v 5.14969 5.14968 h -5.149681 -5.149682 z m 79.176356,0 v -5.14969 h 5.14968 5.14968 v 5.14969 5.14968 h -5.14968 -5.14968 z"
       id="path1032" />
  </g>
</svg>
